<svg width="134" height="134" viewBox="0 0 134 134" fill="none" xmlns="http://www.w3.org/2000/svg">
<g filter="url(#filter0_d_23_8)">
<path d="M97.002 21.002H37.002C31.4791 21.002 27.002 25.4792 27.002 31.002V91.002C27.002 96.5248 31.4791 101.002 37.002 101.002H97.002C102.525 101.002 107.002 96.5248 107.002 91.002V31.002C107.002 25.4792 102.525 21.002 97.002 21.002Z" fill="#FF6B99"/>
</g>
<path d="M84.358 55.9176V59.4688H48.1364V55.9176H84.358ZM84.358 63.5881V67.1392H48.1364V63.5881H84.358ZM80.6648 42.6364V79H76.4034L56.5881 50.4489H56.233V79H51.8295V42.6364H56.0909L75.9773 71.2585H76.3324V42.6364H80.6648Z" fill="white"/>
<defs>
<filter id="filter0_d_23_8" x="9.00195" y="9.002" width="116" height="116" filterUnits="userSpaceOnUse" color-interpolation-filters="sRGB">
<feFlood flood-opacity="0" result="BackgroundImageFix"/>
<feColorMatrix in="SourceAlpha" type="matrix" values="0 0 0 0 0 0 0 0 0 0 0 0 0 0 0 0 0 0 127 0" result="hardAlpha"/>
<feOffset dy="6"/>
<feGaussianBlur stdDeviation="9"/>
<feColorMatrix type="matrix" values="0 0 0 0 1 0 0 0 0 0.419608 0 0 0 0 0.6 0 0 0 0.349 0"/>
<feBlend mode="normal" in2="BackgroundImageFix" result="effect1_dropShadow_23_8"/>
<feBlend mode="normal" in="SourceGraphic" in2="effect1_dropShadow_23_8" result="shape"/>
</filter>
</defs>
</svg>
